<mxfile host="app.diagrams.net" modified="2024-03-12T23:56:01.942Z" agent="Mozilla/5.0 (Macintosh; Intel Mac OS X 10_15_7) AppleWebKit/605.1.15 (KHTML, like Gecko) Version/17.2.1 Safari/605.1.15" etag="LuPiiFkUR7zjnjuaQNuC" version="23.1.6" type="github">
  <diagram name="ページ1" id="kjSX3djOtEC4Rg90vo5r">
    <mxGraphModel dx="2047" dy="1130" grid="1" gridSize="10" guides="1" tooltips="1" connect="1" arrows="1" fold="1" page="1" pageScale="1" pageWidth="827" pageHeight="1169" math="0" shadow="0">
      <root>
        <mxCell id="0" />
        <mxCell id="1" parent="0" />
        <mxCell id="kNIiqA8qOtIb_fAf9N2S-2" value="Ambient Conditions" style="rounded=0;whiteSpace=wrap;html=1;" vertex="1" parent="1">
          <mxGeometry x="10" y="500" width="90" height="50" as="geometry" />
        </mxCell>
        <mxCell id="kNIiqA8qOtIb_fAf9N2S-150" style="edgeStyle=orthogonalEdgeStyle;rounded=0;orthogonalLoop=1;jettySize=auto;html=1;fillColor=#f8cecc;strokeColor=#b85450;" edge="1" parent="1" source="kNIiqA8qOtIb_fAf9N2S-5" target="kNIiqA8qOtIb_fAf9N2S-174">
          <mxGeometry relative="1" as="geometry">
            <mxPoint x="170" y="125" as="targetPoint" />
          </mxGeometry>
        </mxCell>
        <mxCell id="kNIiqA8qOtIb_fAf9N2S-5" value="BLDC Voltage" style="rounded=0;whiteSpace=wrap;html=1;" vertex="1" parent="1">
          <mxGeometry x="10" y="100" width="90" height="50" as="geometry" />
        </mxCell>
        <mxCell id="kNIiqA8qOtIb_fAf9N2S-155" style="edgeStyle=orthogonalEdgeStyle;rounded=0;orthogonalLoop=1;jettySize=auto;html=1;fillColor=#f8cecc;strokeColor=#b85450;" edge="1" parent="1" source="kNIiqA8qOtIb_fAf9N2S-7" target="kNIiqA8qOtIb_fAf9N2S-171">
          <mxGeometry relative="1" as="geometry">
            <mxPoint x="170" y="184.9999999999999" as="targetPoint" />
          </mxGeometry>
        </mxCell>
        <mxCell id="kNIiqA8qOtIb_fAf9N2S-7" value="BLDC Current" style="rounded=0;whiteSpace=wrap;html=1;" vertex="1" parent="1">
          <mxGeometry x="10" y="160" width="90" height="50" as="geometry" />
        </mxCell>
        <mxCell id="kNIiqA8qOtIb_fAf9N2S-159" style="edgeStyle=orthogonalEdgeStyle;rounded=0;orthogonalLoop=1;jettySize=auto;html=1;fillColor=#f8cecc;strokeColor=#b85450;" edge="1" parent="1" source="kNIiqA8qOtIb_fAf9N2S-8" target="kNIiqA8qOtIb_fAf9N2S-167">
          <mxGeometry relative="1" as="geometry">
            <mxPoint x="170" y="245" as="targetPoint" />
          </mxGeometry>
        </mxCell>
        <mxCell id="kNIiqA8qOtIb_fAf9N2S-8" value="BLDC Temperature" style="rounded=0;whiteSpace=wrap;html=1;" vertex="1" parent="1">
          <mxGeometry x="10" y="220" width="90" height="50" as="geometry" />
        </mxCell>
        <mxCell id="kNIiqA8qOtIb_fAf9N2S-163" style="edgeStyle=orthogonalEdgeStyle;rounded=0;orthogonalLoop=1;jettySize=auto;html=1;fillColor=#f8cecc;strokeColor=#b85450;" edge="1" parent="1" source="kNIiqA8qOtIb_fAf9N2S-9" target="kNIiqA8qOtIb_fAf9N2S-181">
          <mxGeometry relative="1" as="geometry">
            <mxPoint x="170" y="365.0000000000001" as="targetPoint" />
          </mxGeometry>
        </mxCell>
        <mxCell id="kNIiqA8qOtIb_fAf9N2S-9" value="Battery Temperature" style="rounded=0;whiteSpace=wrap;html=1;" vertex="1" parent="1">
          <mxGeometry x="10" y="340" width="90" height="50" as="geometry" />
        </mxCell>
        <mxCell id="kNIiqA8qOtIb_fAf9N2S-10" value="Battery SoC" style="rounded=0;whiteSpace=wrap;html=1;" vertex="1" parent="1">
          <mxGeometry x="10" y="585" width="90" height="50" as="geometry" />
        </mxCell>
        <mxCell id="kNIiqA8qOtIb_fAf9N2S-12" value="ESC Stimulus" style="rounded=0;whiteSpace=wrap;html=1;" vertex="1" parent="1">
          <mxGeometry x="750" y="140" width="90" height="50" as="geometry" />
        </mxCell>
        <mxCell id="kNIiqA8qOtIb_fAf9N2S-13" value="ESTOP Relay" style="rounded=0;whiteSpace=wrap;html=1;" vertex="1" parent="1">
          <mxGeometry x="750" y="205" width="90" height="50" as="geometry" />
        </mxCell>
        <mxCell id="kNIiqA8qOtIb_fAf9N2S-14" value="Aux PWR&lt;br&gt;&amp;nbsp;Relay" style="rounded=0;whiteSpace=wrap;html=1;" vertex="1" parent="1">
          <mxGeometry x="750" y="305" width="90" height="50" as="geometry" />
        </mxCell>
        <mxCell id="kNIiqA8qOtIb_fAf9N2S-15" value="Battery&lt;br&gt;Relay" style="rounded=0;whiteSpace=wrap;html=1;" vertex="1" parent="1">
          <mxGeometry x="750" y="365" width="90" height="50" as="geometry" />
        </mxCell>
        <mxCell id="kNIiqA8qOtIb_fAf9N2S-16" value="Binary Port" style="rounded=0;whiteSpace=wrap;html=1;" vertex="1" parent="1">
          <mxGeometry x="750" y="605" width="90" height="50" as="geometry" />
        </mxCell>
        <mxCell id="kNIiqA8qOtIb_fAf9N2S-17" value="Alive Port" style="rounded=0;whiteSpace=wrap;html=1;" vertex="1" parent="1">
          <mxGeometry x="750" y="665" width="90" height="50" as="geometry" />
        </mxCell>
        <mxCell id="kNIiqA8qOtIb_fAf9N2S-18" value="Command Port" style="rounded=0;whiteSpace=wrap;html=1;" vertex="1" parent="1">
          <mxGeometry x="750" y="725" width="90" height="50" as="geometry" />
        </mxCell>
        <mxCell id="kNIiqA8qOtIb_fAf9N2S-19" value="Logging Port" style="rounded=0;whiteSpace=wrap;html=1;" vertex="1" parent="1">
          <mxGeometry x="750" y="785" width="90" height="50" as="geometry" />
        </mxCell>
        <mxCell id="kNIiqA8qOtIb_fAf9N2S-20" value="Charge Controller" style="rounded=0;whiteSpace=wrap;html=1;" vertex="1" parent="1">
          <mxGeometry x="750" y="425" width="90" height="50" as="geometry" />
        </mxCell>
        <mxCell id="kNIiqA8qOtIb_fAf9N2S-21" value="Fuel Gauge" style="rounded=0;whiteSpace=wrap;html=1;" vertex="1" parent="1">
          <mxGeometry x="750" y="485" width="90" height="50" as="geometry" />
        </mxCell>
        <mxCell id="kNIiqA8qOtIb_fAf9N2S-165" style="edgeStyle=orthogonalEdgeStyle;rounded=0;orthogonalLoop=1;jettySize=auto;html=1;fillColor=#f8cecc;strokeColor=#b85450;" edge="1" parent="1" source="kNIiqA8qOtIb_fAf9N2S-22" target="kNIiqA8qOtIb_fAf9N2S-178">
          <mxGeometry relative="1" as="geometry">
            <mxPoint x="169.00000000000023" y="430.0000000000001" as="targetPoint" />
          </mxGeometry>
        </mxCell>
        <mxCell id="kNIiqA8qOtIb_fAf9N2S-22" value="Load Cell Sense" style="rounded=0;whiteSpace=wrap;html=1;" vertex="1" parent="1">
          <mxGeometry x="10" y="405" width="90" height="50" as="geometry" />
        </mxCell>
        <mxCell id="kNIiqA8qOtIb_fAf9N2S-194" style="edgeStyle=orthogonalEdgeStyle;rounded=0;orthogonalLoop=1;jettySize=auto;html=1;startArrow=classic;startFill=1;" edge="1" parent="1" source="kNIiqA8qOtIb_fAf9N2S-48" target="kNIiqA8qOtIb_fAf9N2S-128">
          <mxGeometry relative="1" as="geometry" />
        </mxCell>
        <mxCell id="kNIiqA8qOtIb_fAf9N2S-48" value="Thrust Controller" style="ellipse;shape=umlControl;whiteSpace=wrap;html=1;" vertex="1" parent="1">
          <mxGeometry x="339" y="145" width="70" height="80" as="geometry" />
        </mxCell>
        <mxCell id="kNIiqA8qOtIb_fAf9N2S-234" style="edgeStyle=orthogonalEdgeStyle;rounded=0;orthogonalLoop=1;jettySize=auto;html=1;" edge="1" parent="1" source="kNIiqA8qOtIb_fAf9N2S-49" target="kNIiqA8qOtIb_fAf9N2S-220">
          <mxGeometry relative="1" as="geometry" />
        </mxCell>
        <mxCell id="kNIiqA8qOtIb_fAf9N2S-236" style="edgeStyle=orthogonalEdgeStyle;rounded=0;orthogonalLoop=1;jettySize=auto;html=1;" edge="1" parent="1" source="kNIiqA8qOtIb_fAf9N2S-49" target="kNIiqA8qOtIb_fAf9N2S-233">
          <mxGeometry relative="1" as="geometry" />
        </mxCell>
        <mxCell id="kNIiqA8qOtIb_fAf9N2S-49" value="Stream&lt;br&gt;Handler" style="ellipse;shape=umlControl;whiteSpace=wrap;html=1;" vertex="1" parent="1">
          <mxGeometry x="393.5" y="325" width="70" height="80" as="geometry" />
        </mxCell>
        <mxCell id="kNIiqA8qOtIb_fAf9N2S-136" style="edgeStyle=orthogonalEdgeStyle;rounded=0;orthogonalLoop=1;jettySize=auto;html=1;" edge="1" parent="1" source="kNIiqA8qOtIb_fAf9N2S-50" target="kNIiqA8qOtIb_fAf9N2S-128">
          <mxGeometry relative="1" as="geometry" />
        </mxCell>
        <mxCell id="kNIiqA8qOtIb_fAf9N2S-50" value="Supervisor" style="ellipse;shape=umlControl;whiteSpace=wrap;html=1;" vertex="1" parent="1">
          <mxGeometry x="345.5" y="500" width="70" height="80" as="geometry" />
        </mxCell>
        <mxCell id="kNIiqA8qOtIb_fAf9N2S-51" value="Battery Controller" style="ellipse;shape=umlControl;whiteSpace=wrap;html=1;" vertex="1" parent="1">
          <mxGeometry x="126" y="510" width="70" height="80" as="geometry" />
        </mxCell>
        <mxCell id="kNIiqA8qOtIb_fAf9N2S-118" style="edgeStyle=orthogonalEdgeStyle;rounded=0;orthogonalLoop=1;jettySize=auto;html=1;entryX=0.5;entryY=1;entryDx=0;entryDy=0;" edge="1" parent="1" source="kNIiqA8qOtIb_fAf9N2S-53" target="kNIiqA8qOtIb_fAf9N2S-112">
          <mxGeometry relative="1" as="geometry" />
        </mxCell>
        <mxCell id="kNIiqA8qOtIb_fAf9N2S-53" value="Command Server" style="ellipse;shape=umlControl;whiteSpace=wrap;html=1;" vertex="1" parent="1">
          <mxGeometry x="345.5" y="730" width="70" height="80" as="geometry" />
        </mxCell>
        <mxCell id="kNIiqA8qOtIb_fAf9N2S-82" style="edgeStyle=orthogonalEdgeStyle;rounded=0;orthogonalLoop=1;jettySize=auto;html=1;" edge="1" parent="1" source="kNIiqA8qOtIb_fAf9N2S-54" target="kNIiqA8qOtIb_fAf9N2S-81">
          <mxGeometry relative="1" as="geometry" />
        </mxCell>
        <mxCell id="kNIiqA8qOtIb_fAf9N2S-54" value="Command Port" style="rounded=0;whiteSpace=wrap;html=1;" vertex="1" parent="1">
          <mxGeometry x="30" y="720" width="90" height="50" as="geometry" />
        </mxCell>
        <mxCell id="kNIiqA8qOtIb_fAf9N2S-83" style="edgeStyle=orthogonalEdgeStyle;rounded=0;orthogonalLoop=1;jettySize=auto;html=1;" edge="1" parent="1" source="kNIiqA8qOtIb_fAf9N2S-55" target="kNIiqA8qOtIb_fAf9N2S-81">
          <mxGeometry relative="1" as="geometry" />
        </mxCell>
        <mxCell id="kNIiqA8qOtIb_fAf9N2S-55" value="UART" style="rounded=0;whiteSpace=wrap;html=1;" vertex="1" parent="1">
          <mxGeometry x="30" y="780" width="90" height="50" as="geometry" />
        </mxCell>
        <mxCell id="kNIiqA8qOtIb_fAf9N2S-56" value="Logger" style="ellipse;shape=umlControl;whiteSpace=wrap;html=1;" vertex="1" parent="1">
          <mxGeometry x="185.5" y="595" width="70" height="80" as="geometry" />
        </mxCell>
        <mxCell id="kNIiqA8qOtIb_fAf9N2S-57" value="System health task monitors the health of all tasks periodically. Runs the high level state machine" style="rounded=0;whiteSpace=wrap;html=1;fillColor=#dae8fc;strokeColor=#6c8ebf;" vertex="1" parent="1">
          <mxGeometry x="297.5" y="430" width="166" height="60" as="geometry" />
        </mxCell>
        <mxCell id="kNIiqA8qOtIb_fAf9N2S-58" value="Manages thrust sequencing and emergency stop. Low Latency!" style="rounded=0;whiteSpace=wrap;html=1;fillColor=#dae8fc;strokeColor=#6c8ebf;" vertex="1" parent="1">
          <mxGeometry x="297.5" y="80" width="186" height="50" as="geometry" />
        </mxCell>
        <mxCell id="kNIiqA8qOtIb_fAf9N2S-59" value="Emit logs" style="rounded=0;whiteSpace=wrap;html=1;fillColor=#dae8fc;strokeColor=#6c8ebf;" vertex="1" parent="1">
          <mxGeometry x="175.5" y="685" width="90" height="35" as="geometry" />
        </mxCell>
        <mxCell id="kNIiqA8qOtIb_fAf9N2S-161" style="edgeStyle=orthogonalEdgeStyle;rounded=0;orthogonalLoop=1;jettySize=auto;html=1;fillColor=#f8cecc;strokeColor=#b85450;" edge="1" parent="1" source="kNIiqA8qOtIb_fAf9N2S-60" target="kNIiqA8qOtIb_fAf9N2S-184">
          <mxGeometry relative="1" as="geometry">
            <mxPoint x="170" y="305.0000000000001" as="targetPoint" />
          </mxGeometry>
        </mxCell>
        <mxCell id="kNIiqA8qOtIb_fAf9N2S-60" value="ESC Temperature" style="rounded=0;whiteSpace=wrap;html=1;" vertex="1" parent="1">
          <mxGeometry x="10" y="280" width="90" height="50" as="geometry" />
        </mxCell>
        <mxCell id="kNIiqA8qOtIb_fAf9N2S-65" value="Handles alive data streaming and binary data streaming. discretization of packets into chunks" style="rounded=0;whiteSpace=wrap;html=1;fillColor=#dae8fc;strokeColor=#6c8ebf;" vertex="1" parent="1">
          <mxGeometry x="295.5" y="250" width="196" height="60" as="geometry" />
        </mxCell>
        <mxCell id="kNIiqA8qOtIb_fAf9N2S-84" style="edgeStyle=orthogonalEdgeStyle;rounded=0;orthogonalLoop=1;jettySize=auto;html=1;" edge="1" parent="1" source="kNIiqA8qOtIb_fAf9N2S-81" target="kNIiqA8qOtIb_fAf9N2S-53">
          <mxGeometry relative="1" as="geometry" />
        </mxCell>
        <mxCell id="kNIiqA8qOtIb_fAf9N2S-81" value="" style="shape=internalStorage;whiteSpace=wrap;html=1;backgroundOutline=1;dx=11;dy=10;" vertex="1" parent="1">
          <mxGeometry x="200" y="750" width="31" height="40" as="geometry" />
        </mxCell>
        <mxCell id="kNIiqA8qOtIb_fAf9N2S-86" value="Thrust Struct" style="shape=table;startSize=30;container=1;collapsible=0;childLayout=tableLayout;fixedRows=1;rowLines=0;fontStyle=0;strokeColor=default;fontSize=16;" vertex="1" parent="1">
          <mxGeometry x="520" y="25" width="126" height="125" as="geometry" />
        </mxCell>
        <mxCell id="kNIiqA8qOtIb_fAf9N2S-87" value="" style="shape=tableRow;horizontal=0;startSize=0;swimlaneHead=0;swimlaneBody=0;top=0;left=0;bottom=0;right=0;collapsible=0;dropTarget=0;fillColor=none;points=[[0,0.5],[1,0.5]];portConstraint=eastwest;strokeColor=inherit;fontSize=16;" vertex="1" parent="kNIiqA8qOtIb_fAf9N2S-86">
          <mxGeometry y="30" width="126" height="30" as="geometry" />
        </mxCell>
        <mxCell id="kNIiqA8qOtIb_fAf9N2S-88" value="1" style="shape=partialRectangle;html=1;whiteSpace=wrap;connectable=0;fillColor=none;top=0;left=0;bottom=0;right=0;overflow=hidden;pointerEvents=1;strokeColor=inherit;fontSize=16;" vertex="1" parent="kNIiqA8qOtIb_fAf9N2S-87">
          <mxGeometry width="30" height="30" as="geometry">
            <mxRectangle width="30" height="30" as="alternateBounds" />
          </mxGeometry>
        </mxCell>
        <mxCell id="kNIiqA8qOtIb_fAf9N2S-89" value="ESC 0%" style="shape=partialRectangle;html=1;whiteSpace=wrap;connectable=0;fillColor=none;top=0;left=0;bottom=0;right=0;align=left;spacingLeft=6;overflow=hidden;strokeColor=inherit;fontSize=16;" vertex="1" parent="kNIiqA8qOtIb_fAf9N2S-87">
          <mxGeometry x="30" width="96" height="30" as="geometry">
            <mxRectangle width="96" height="30" as="alternateBounds" />
          </mxGeometry>
        </mxCell>
        <mxCell id="kNIiqA8qOtIb_fAf9N2S-90" value="" style="shape=tableRow;horizontal=0;startSize=0;swimlaneHead=0;swimlaneBody=0;top=0;left=0;bottom=0;right=0;collapsible=0;dropTarget=0;fillColor=none;points=[[0,0.5],[1,0.5]];portConstraint=eastwest;strokeColor=inherit;fontSize=16;" vertex="1" parent="kNIiqA8qOtIb_fAf9N2S-86">
          <mxGeometry y="60" width="126" height="35" as="geometry" />
        </mxCell>
        <mxCell id="kNIiqA8qOtIb_fAf9N2S-91" value="2" style="shape=partialRectangle;html=1;whiteSpace=wrap;connectable=0;fillColor=none;top=0;left=0;bottom=0;right=0;overflow=hidden;strokeColor=inherit;fontSize=16;" vertex="1" parent="kNIiqA8qOtIb_fAf9N2S-90">
          <mxGeometry width="30" height="35" as="geometry">
            <mxRectangle width="30" height="35" as="alternateBounds" />
          </mxGeometry>
        </mxCell>
        <mxCell id="kNIiqA8qOtIb_fAf9N2S-92" value="ESC 10%" style="shape=partialRectangle;html=1;whiteSpace=wrap;connectable=0;fillColor=none;top=0;left=0;bottom=0;right=0;align=left;spacingLeft=6;overflow=hidden;strokeColor=inherit;fontSize=16;" vertex="1" parent="kNIiqA8qOtIb_fAf9N2S-90">
          <mxGeometry x="30" width="96" height="35" as="geometry">
            <mxRectangle width="96" height="35" as="alternateBounds" />
          </mxGeometry>
        </mxCell>
        <mxCell id="kNIiqA8qOtIb_fAf9N2S-93" value="" style="shape=tableRow;horizontal=0;startSize=0;swimlaneHead=0;swimlaneBody=0;top=0;left=0;bottom=0;right=0;collapsible=0;dropTarget=0;fillColor=none;points=[[0,0.5],[1,0.5]];portConstraint=eastwest;strokeColor=inherit;fontSize=16;" vertex="1" parent="kNIiqA8qOtIb_fAf9N2S-86">
          <mxGeometry y="95" width="126" height="30" as="geometry" />
        </mxCell>
        <mxCell id="kNIiqA8qOtIb_fAf9N2S-94" value="3" style="shape=partialRectangle;html=1;whiteSpace=wrap;connectable=0;fillColor=none;top=0;left=0;bottom=0;right=0;overflow=hidden;strokeColor=inherit;fontSize=16;" vertex="1" parent="kNIiqA8qOtIb_fAf9N2S-93">
          <mxGeometry width="30" height="30" as="geometry">
            <mxRectangle width="30" height="30" as="alternateBounds" />
          </mxGeometry>
        </mxCell>
        <mxCell id="kNIiqA8qOtIb_fAf9N2S-95" value="Value 3" style="shape=partialRectangle;html=1;whiteSpace=wrap;connectable=0;fillColor=none;top=0;left=0;bottom=0;right=0;align=left;spacingLeft=6;overflow=hidden;strokeColor=inherit;fontSize=16;" vertex="1" parent="kNIiqA8qOtIb_fAf9N2S-93">
          <mxGeometry x="30" width="96" height="30" as="geometry">
            <mxRectangle width="96" height="30" as="alternateBounds" />
          </mxGeometry>
        </mxCell>
        <mxCell id="kNIiqA8qOtIb_fAf9N2S-101" value="Register Map" style="shape=table;startSize=30;container=1;collapsible=0;childLayout=tableLayout;fixedRows=1;rowLines=0;fontStyle=0;strokeColor=default;fontSize=16;" vertex="1" parent="1">
          <mxGeometry x="269.5" y="900" width="222" height="120" as="geometry" />
        </mxCell>
        <mxCell id="kNIiqA8qOtIb_fAf9N2S-102" value="" style="shape=tableRow;horizontal=0;startSize=0;swimlaneHead=0;swimlaneBody=0;top=0;left=0;bottom=0;right=0;collapsible=0;dropTarget=0;fillColor=none;points=[[0,0.5],[1,0.5]];portConstraint=eastwest;strokeColor=inherit;fontSize=16;" vertex="1" parent="kNIiqA8qOtIb_fAf9N2S-101">
          <mxGeometry y="30" width="222" height="30" as="geometry" />
        </mxCell>
        <mxCell id="kNIiqA8qOtIb_fAf9N2S-103" value="1" style="shape=partialRectangle;html=1;whiteSpace=wrap;connectable=0;fillColor=none;top=0;left=0;bottom=0;right=0;overflow=hidden;pointerEvents=1;strokeColor=inherit;fontSize=16;" vertex="1" parent="kNIiqA8qOtIb_fAf9N2S-102">
          <mxGeometry width="49" height="30" as="geometry">
            <mxRectangle width="49" height="30" as="alternateBounds" />
          </mxGeometry>
        </mxCell>
        <mxCell id="kNIiqA8qOtIb_fAf9N2S-104" value="esc temperature min" style="shape=partialRectangle;html=1;whiteSpace=wrap;connectable=0;fillColor=none;top=0;left=0;bottom=0;right=0;align=left;spacingLeft=6;overflow=hidden;strokeColor=inherit;fontSize=16;" vertex="1" parent="kNIiqA8qOtIb_fAf9N2S-102">
          <mxGeometry x="49" width="173" height="30" as="geometry">
            <mxRectangle width="173" height="30" as="alternateBounds" />
          </mxGeometry>
        </mxCell>
        <mxCell id="kNIiqA8qOtIb_fAf9N2S-105" value="" style="shape=tableRow;horizontal=0;startSize=0;swimlaneHead=0;swimlaneBody=0;top=0;left=0;bottom=0;right=0;collapsible=0;dropTarget=0;fillColor=none;points=[[0,0.5],[1,0.5]];portConstraint=eastwest;strokeColor=inherit;fontSize=16;" vertex="1" parent="kNIiqA8qOtIb_fAf9N2S-101">
          <mxGeometry y="60" width="222" height="30" as="geometry" />
        </mxCell>
        <mxCell id="kNIiqA8qOtIb_fAf9N2S-106" value="2" style="shape=partialRectangle;html=1;whiteSpace=wrap;connectable=0;fillColor=none;top=0;left=0;bottom=0;right=0;overflow=hidden;strokeColor=inherit;fontSize=16;" vertex="1" parent="kNIiqA8qOtIb_fAf9N2S-105">
          <mxGeometry width="49" height="30" as="geometry">
            <mxRectangle width="49" height="30" as="alternateBounds" />
          </mxGeometry>
        </mxCell>
        <mxCell id="kNIiqA8qOtIb_fAf9N2S-107" value="Value 2" style="shape=partialRectangle;html=1;whiteSpace=wrap;connectable=0;fillColor=none;top=0;left=0;bottom=0;right=0;align=left;spacingLeft=6;overflow=hidden;strokeColor=inherit;fontSize=16;" vertex="1" parent="kNIiqA8qOtIb_fAf9N2S-105">
          <mxGeometry x="49" width="173" height="30" as="geometry">
            <mxRectangle width="173" height="30" as="alternateBounds" />
          </mxGeometry>
        </mxCell>
        <mxCell id="kNIiqA8qOtIb_fAf9N2S-108" value="" style="shape=tableRow;horizontal=0;startSize=0;swimlaneHead=0;swimlaneBody=0;top=0;left=0;bottom=0;right=0;collapsible=0;dropTarget=0;fillColor=none;points=[[0,0.5],[1,0.5]];portConstraint=eastwest;strokeColor=inherit;fontSize=16;" vertex="1" parent="kNIiqA8qOtIb_fAf9N2S-101">
          <mxGeometry y="90" width="222" height="30" as="geometry" />
        </mxCell>
        <mxCell id="kNIiqA8qOtIb_fAf9N2S-109" value="3" style="shape=partialRectangle;html=1;whiteSpace=wrap;connectable=0;fillColor=none;top=0;left=0;bottom=0;right=0;overflow=hidden;strokeColor=inherit;fontSize=16;" vertex="1" parent="kNIiqA8qOtIb_fAf9N2S-108">
          <mxGeometry width="49" height="30" as="geometry">
            <mxRectangle width="49" height="30" as="alternateBounds" />
          </mxGeometry>
        </mxCell>
        <mxCell id="kNIiqA8qOtIb_fAf9N2S-110" value="Value 3" style="shape=partialRectangle;html=1;whiteSpace=wrap;connectable=0;fillColor=none;top=0;left=0;bottom=0;right=0;align=left;spacingLeft=6;overflow=hidden;strokeColor=inherit;fontSize=16;" vertex="1" parent="kNIiqA8qOtIb_fAf9N2S-108">
          <mxGeometry x="49" width="173" height="30" as="geometry">
            <mxRectangle width="173" height="30" as="alternateBounds" />
          </mxGeometry>
        </mxCell>
        <mxCell id="kNIiqA8qOtIb_fAf9N2S-112" value="" style="shape=internalStorage;whiteSpace=wrap;html=1;backgroundOutline=1;dx=11;dy=10;" vertex="1" parent="1">
          <mxGeometry x="348.25" y="590" width="64.5" height="30" as="geometry" />
        </mxCell>
        <mxCell id="kNIiqA8qOtIb_fAf9N2S-123" style="edgeStyle=orthogonalEdgeStyle;rounded=0;orthogonalLoop=1;jettySize=auto;html=1;" edge="1" parent="1" source="kNIiqA8qOtIb_fAf9N2S-116" target="kNIiqA8qOtIb_fAf9N2S-124">
          <mxGeometry relative="1" as="geometry">
            <mxPoint x="230" y="855" as="targetPoint" />
          </mxGeometry>
        </mxCell>
        <mxCell id="kNIiqA8qOtIb_fAf9N2S-116" value="esc:min:temp?" style="text;html=1;align=center;verticalAlign=middle;resizable=0;points=[];autosize=1;strokeColor=none;fillColor=none;" vertex="1" parent="1">
          <mxGeometry x="20" y="840" width="100" height="30" as="geometry" />
        </mxCell>
        <mxCell id="kNIiqA8qOtIb_fAf9N2S-117" value="Event Queue" style="text;html=1;align=center;verticalAlign=middle;resizable=0;points=[];autosize=1;strokeColor=none;fillColor=none;" vertex="1" parent="1">
          <mxGeometry x="290" y="650" width="90" height="30" as="geometry" />
        </mxCell>
        <mxCell id="kNIiqA8qOtIb_fAf9N2S-122" value="Actor" style="shape=umlActor;verticalLabelPosition=bottom;verticalAlign=top;html=1;outlineConnect=0;" vertex="1" parent="1">
          <mxGeometry x="-40" y="710" width="30" height="60" as="geometry" />
        </mxCell>
        <mxCell id="kNIiqA8qOtIb_fAf9N2S-124" value="thrust_get_f32(ESC_TEMP_MIN)" style="text;html=1;align=center;verticalAlign=middle;resizable=0;points=[];autosize=1;strokeColor=none;fillColor=none;fontFamily=Courier New;" vertex="1" parent="1">
          <mxGeometry x="304" y="840" width="230" height="30" as="geometry" />
        </mxCell>
        <mxCell id="kNIiqA8qOtIb_fAf9N2S-127" value="-2˚C" style="text;html=1;align=center;verticalAlign=middle;resizable=0;points=[];autosize=1;strokeColor=none;fillColor=none;" vertex="1" parent="1">
          <mxGeometry x="20" y="880" width="50" height="30" as="geometry" />
        </mxCell>
        <mxCell id="kNIiqA8qOtIb_fAf9N2S-137" style="edgeStyle=orthogonalEdgeStyle;rounded=0;orthogonalLoop=1;jettySize=auto;html=1;" edge="1" parent="1" source="kNIiqA8qOtIb_fAf9N2S-128" target="kNIiqA8qOtIb_fAf9N2S-50">
          <mxGeometry relative="1" as="geometry" />
        </mxCell>
        <mxCell id="kNIiqA8qOtIb_fAf9N2S-128" value="sys_reg" style="rounded=1;whiteSpace=wrap;html=1;" vertex="1" parent="1">
          <mxGeometry x="491.5" y="525" width="70" height="30" as="geometry" />
        </mxCell>
        <mxCell id="kNIiqA8qOtIb_fAf9N2S-129" value="err" style="text;html=1;align=center;verticalAlign=middle;resizable=0;points=[];autosize=1;strokeColor=none;fillColor=none;" vertex="1" parent="1">
          <mxGeometry x="35" y="860" width="40" height="30" as="geometry" />
        </mxCell>
        <mxCell id="kNIiqA8qOtIb_fAf9N2S-133" value="profile:start" style="text;html=1;align=center;verticalAlign=middle;resizable=0;points=[];autosize=1;strokeColor=none;fillColor=none;" vertex="1" parent="1">
          <mxGeometry x="265.5" y="587.5" width="80" height="30" as="geometry" />
        </mxCell>
        <mxCell id="kNIiqA8qOtIb_fAf9N2S-134" value="*idn?" style="text;html=1;align=center;verticalAlign=middle;resizable=0;points=[];autosize=1;strokeColor=none;fillColor=none;" vertex="1" parent="1">
          <mxGeometry x="20" y="910" width="50" height="30" as="geometry" />
        </mxCell>
        <mxCell id="kNIiqA8qOtIb_fAf9N2S-135" value="*stb?" style="text;html=1;align=center;verticalAlign=middle;resizable=0;points=[];autosize=1;strokeColor=none;fillColor=none;" vertex="1" parent="1">
          <mxGeometry x="20" y="950" width="50" height="30" as="geometry" />
        </mxCell>
        <mxCell id="kNIiqA8qOtIb_fAf9N2S-139" value="10101010" style="text;html=1;align=center;verticalAlign=middle;whiteSpace=wrap;rounded=0;" vertex="1" parent="1">
          <mxGeometry x="-45" y="950" width="75" height="30" as="geometry" />
        </mxCell>
        <mxCell id="kNIiqA8qOtIb_fAf9N2S-142" value="*opc?" style="text;html=1;align=center;verticalAlign=middle;resizable=0;points=[];autosize=1;strokeColor=none;fillColor=none;" vertex="1" parent="1">
          <mxGeometry x="20" y="990" width="50" height="30" as="geometry" />
        </mxCell>
        <mxCell id="kNIiqA8qOtIb_fAf9N2S-143" value="0" style="text;html=1;align=center;verticalAlign=middle;resizable=0;points=[];autosize=1;strokeColor=none;fillColor=none;" vertex="1" parent="1">
          <mxGeometry x="-30" y="990" width="30" height="30" as="geometry" />
        </mxCell>
        <mxCell id="kNIiqA8qOtIb_fAf9N2S-144" value="1" style="text;html=1;align=center;verticalAlign=middle;resizable=0;points=[];autosize=1;strokeColor=none;fillColor=none;" vertex="1" parent="1">
          <mxGeometry x="-10" y="990" width="30" height="30" as="geometry" />
        </mxCell>
        <mxCell id="kNIiqA8qOtIb_fAf9N2S-146" value="" style="edgeStyle=orthogonalEdgeStyle;rounded=0;orthogonalLoop=1;jettySize=auto;html=1;" edge="1" parent="1" source="kNIiqA8qOtIb_fAf9N2S-53" target="kNIiqA8qOtIb_fAf9N2S-145">
          <mxGeometry relative="1" as="geometry">
            <mxPoint x="490" y="590" as="targetPoint" />
            <mxPoint x="416" y="770" as="sourcePoint" />
          </mxGeometry>
        </mxCell>
        <mxCell id="kNIiqA8qOtIb_fAf9N2S-145" value="OPC" style="rounded=1;whiteSpace=wrap;html=1;" vertex="1" parent="1">
          <mxGeometry x="491.5" y="570" width="70" height="30" as="geometry" />
        </mxCell>
        <mxCell id="kNIiqA8qOtIb_fAf9N2S-148" value="Configuration" style="text;html=1;align=center;verticalAlign=middle;resizable=0;points=[];autosize=1;strokeColor=none;fillColor=none;" vertex="1" parent="1">
          <mxGeometry x="401.5" y="820" width="90" height="30" as="geometry" />
        </mxCell>
        <mxCell id="kNIiqA8qOtIb_fAf9N2S-169" style="edgeStyle=orthogonalEdgeStyle;rounded=0;orthogonalLoop=1;jettySize=auto;html=1;fillColor=#f8cecc;strokeColor=#b85450;" edge="1" parent="1" source="kNIiqA8qOtIb_fAf9N2S-167" target="kNIiqA8qOtIb_fAf9N2S-168">
          <mxGeometry relative="1" as="geometry" />
        </mxCell>
        <mxCell id="kNIiqA8qOtIb_fAf9N2S-167" value="DMA" style="rounded=0;whiteSpace=wrap;html=1;fillColor=#f8cecc;strokeColor=#b85450;" vertex="1" parent="1">
          <mxGeometry x="153" y="230" width="40" height="30" as="geometry" />
        </mxCell>
        <mxCell id="kNIiqA8qOtIb_fAf9N2S-168" value="Buffer" style="rounded=0;whiteSpace=wrap;html=1;fillColor=#f8cecc;strokeColor=#b85450;" vertex="1" parent="1">
          <mxGeometry x="238" y="230" width="40" height="30" as="geometry" />
        </mxCell>
        <mxCell id="kNIiqA8qOtIb_fAf9N2S-170" style="edgeStyle=orthogonalEdgeStyle;rounded=0;orthogonalLoop=1;jettySize=auto;html=1;fillColor=#f8cecc;strokeColor=#b85450;" edge="1" parent="1" source="kNIiqA8qOtIb_fAf9N2S-171" target="kNIiqA8qOtIb_fAf9N2S-172">
          <mxGeometry relative="1" as="geometry" />
        </mxCell>
        <mxCell id="kNIiqA8qOtIb_fAf9N2S-171" value="DMA" style="rounded=0;whiteSpace=wrap;html=1;fillColor=#f8cecc;strokeColor=#b85450;" vertex="1" parent="1">
          <mxGeometry x="153" y="170" width="40" height="30" as="geometry" />
        </mxCell>
        <mxCell id="kNIiqA8qOtIb_fAf9N2S-172" value="Buffer" style="rounded=0;whiteSpace=wrap;html=1;fillColor=#f8cecc;strokeColor=#b85450;" vertex="1" parent="1">
          <mxGeometry x="238" y="170" width="40" height="30" as="geometry" />
        </mxCell>
        <mxCell id="kNIiqA8qOtIb_fAf9N2S-173" style="edgeStyle=orthogonalEdgeStyle;rounded=0;orthogonalLoop=1;jettySize=auto;html=1;fillColor=#f8cecc;strokeColor=#b85450;" edge="1" parent="1" source="kNIiqA8qOtIb_fAf9N2S-174" target="kNIiqA8qOtIb_fAf9N2S-175">
          <mxGeometry relative="1" as="geometry" />
        </mxCell>
        <mxCell id="kNIiqA8qOtIb_fAf9N2S-174" value="DMA" style="rounded=0;whiteSpace=wrap;html=1;fillColor=#f8cecc;strokeColor=#b85450;" vertex="1" parent="1">
          <mxGeometry x="153" y="110" width="40" height="30" as="geometry" />
        </mxCell>
        <mxCell id="kNIiqA8qOtIb_fAf9N2S-175" value="Buffer" style="rounded=0;whiteSpace=wrap;html=1;fillColor=#f8cecc;strokeColor=#b85450;" vertex="1" parent="1">
          <mxGeometry x="237.5" y="110" width="40" height="30" as="geometry" />
        </mxCell>
        <mxCell id="kNIiqA8qOtIb_fAf9N2S-177" style="edgeStyle=orthogonalEdgeStyle;rounded=0;orthogonalLoop=1;jettySize=auto;html=1;fillColor=#f8cecc;strokeColor=#b85450;" edge="1" parent="1" source="kNIiqA8qOtIb_fAf9N2S-178" target="kNIiqA8qOtIb_fAf9N2S-179">
          <mxGeometry relative="1" as="geometry" />
        </mxCell>
        <mxCell id="kNIiqA8qOtIb_fAf9N2S-178" value="DMA" style="rounded=0;whiteSpace=wrap;html=1;fillColor=#f8cecc;strokeColor=#b85450;" vertex="1" parent="1">
          <mxGeometry x="153" y="415" width="40" height="30" as="geometry" />
        </mxCell>
        <mxCell id="kNIiqA8qOtIb_fAf9N2S-179" value="Buffer" style="rounded=0;whiteSpace=wrap;html=1;fillColor=#f8cecc;strokeColor=#b85450;" vertex="1" parent="1">
          <mxGeometry x="238" y="415" width="40" height="30" as="geometry" />
        </mxCell>
        <mxCell id="kNIiqA8qOtIb_fAf9N2S-180" style="edgeStyle=orthogonalEdgeStyle;rounded=0;orthogonalLoop=1;jettySize=auto;html=1;fillColor=#f8cecc;strokeColor=#b85450;" edge="1" parent="1" source="kNIiqA8qOtIb_fAf9N2S-181" target="kNIiqA8qOtIb_fAf9N2S-182">
          <mxGeometry relative="1" as="geometry" />
        </mxCell>
        <mxCell id="kNIiqA8qOtIb_fAf9N2S-181" value="DMA" style="rounded=0;whiteSpace=wrap;html=1;fillColor=#f8cecc;strokeColor=#b85450;" vertex="1" parent="1">
          <mxGeometry x="153" y="350" width="40" height="30" as="geometry" />
        </mxCell>
        <mxCell id="kNIiqA8qOtIb_fAf9N2S-182" value="Buffer" style="rounded=0;whiteSpace=wrap;html=1;fillColor=#f8cecc;strokeColor=#b85450;" vertex="1" parent="1">
          <mxGeometry x="238" y="350" width="40" height="30" as="geometry" />
        </mxCell>
        <mxCell id="kNIiqA8qOtIb_fAf9N2S-183" style="edgeStyle=orthogonalEdgeStyle;rounded=0;orthogonalLoop=1;jettySize=auto;html=1;fillColor=#f8cecc;strokeColor=#b85450;" edge="1" parent="1" source="kNIiqA8qOtIb_fAf9N2S-184" target="kNIiqA8qOtIb_fAf9N2S-185">
          <mxGeometry relative="1" as="geometry" />
        </mxCell>
        <mxCell id="kNIiqA8qOtIb_fAf9N2S-184" value="DMA" style="rounded=0;whiteSpace=wrap;html=1;fillColor=#f8cecc;strokeColor=#b85450;" vertex="1" parent="1">
          <mxGeometry x="153" y="290" width="40" height="30" as="geometry" />
        </mxCell>
        <mxCell id="kNIiqA8qOtIb_fAf9N2S-185" value="Buffer" style="rounded=0;whiteSpace=wrap;html=1;fillColor=#f8cecc;strokeColor=#b85450;" vertex="1" parent="1">
          <mxGeometry x="237.5" y="290" width="40" height="30" as="geometry" />
        </mxCell>
        <mxCell id="kNIiqA8qOtIb_fAf9N2S-188" style="edgeStyle=orthogonalEdgeStyle;rounded=0;orthogonalLoop=1;jettySize=auto;html=1;fillColor=#d5e8d4;strokeColor=#82b366;" edge="1" parent="1" source="kNIiqA8qOtIb_fAf9N2S-186" target="kNIiqA8qOtIb_fAf9N2S-187">
          <mxGeometry relative="1" as="geometry" />
        </mxCell>
        <mxCell id="kNIiqA8qOtIb_fAf9N2S-186" value="RPM counter" style="rounded=0;whiteSpace=wrap;html=1;" vertex="1" parent="1">
          <mxGeometry x="10" y="40" width="90" height="50" as="geometry" />
        </mxCell>
        <mxCell id="kNIiqA8qOtIb_fAf9N2S-187" value="ISR" style="rounded=0;whiteSpace=wrap;html=1;fillColor=#d5e8d4;strokeColor=#82b366;" vertex="1" parent="1">
          <mxGeometry x="153" y="50" width="43" height="30" as="geometry" />
        </mxCell>
        <mxCell id="kNIiqA8qOtIb_fAf9N2S-190" value="ADC_CONV_CPLT" style="rounded=1;whiteSpace=wrap;html=1;" vertex="1" parent="1">
          <mxGeometry x="-165" y="215" width="120" height="60" as="geometry" />
        </mxCell>
        <mxCell id="kNIiqA8qOtIb_fAf9N2S-231" style="edgeStyle=orthogonalEdgeStyle;rounded=0;orthogonalLoop=1;jettySize=auto;html=1;" edge="1" parent="1" source="kNIiqA8qOtIb_fAf9N2S-190">
          <mxGeometry relative="1" as="geometry">
            <mxPoint x="-80" y="318" as="targetPoint" />
          </mxGeometry>
        </mxCell>
        <mxCell id="kNIiqA8qOtIb_fAf9N2S-196" value="" style="endArrow=none;dashed=1;html=1;dashPattern=1 3;strokeWidth=2;rounded=0;" edge="1" parent="1">
          <mxGeometry width="50" height="50" relative="1" as="geometry">
            <mxPoint x="-460" y="390" as="sourcePoint" />
            <mxPoint x="-230" y="390" as="targetPoint" />
          </mxGeometry>
        </mxCell>
        <mxCell id="kNIiqA8qOtIb_fAf9N2S-197" value="" style="endArrow=none;html=1;rounded=0;" edge="1" parent="1">
          <mxGeometry width="50" height="50" relative="1" as="geometry">
            <mxPoint x="-390" y="390" as="sourcePoint" />
            <mxPoint x="-390" y="320" as="targetPoint" />
          </mxGeometry>
        </mxCell>
        <mxCell id="kNIiqA8qOtIb_fAf9N2S-198" value="" style="endArrow=none;html=1;rounded=0;" edge="1" parent="1">
          <mxGeometry width="50" height="50" relative="1" as="geometry">
            <mxPoint x="-340" y="390" as="sourcePoint" />
            <mxPoint x="-340" y="320" as="targetPoint" />
          </mxGeometry>
        </mxCell>
        <mxCell id="kNIiqA8qOtIb_fAf9N2S-199" value="" style="endArrow=none;html=1;rounded=0;" edge="1" parent="1">
          <mxGeometry width="50" height="50" relative="1" as="geometry">
            <mxPoint x="-290" y="390" as="sourcePoint" />
            <mxPoint x="-290" y="320" as="targetPoint" />
          </mxGeometry>
        </mxCell>
        <mxCell id="kNIiqA8qOtIb_fAf9N2S-200" value="" style="endArrow=classic;html=1;rounded=0;" edge="1" parent="1" target="kNIiqA8qOtIb_fAf9N2S-201">
          <mxGeometry width="50" height="50" relative="1" as="geometry">
            <mxPoint x="-390" y="390" as="sourcePoint" />
            <mxPoint x="-360" y="480" as="targetPoint" />
          </mxGeometry>
        </mxCell>
        <mxCell id="kNIiqA8qOtIb_fAf9N2S-201" value="Memory" style="swimlane;fontStyle=0;childLayout=stackLayout;horizontal=1;startSize=30;horizontalStack=0;resizeParent=1;resizeParentMax=0;resizeLast=0;collapsible=1;marginBottom=0;whiteSpace=wrap;html=1;" vertex="1" parent="1">
          <mxGeometry x="-380" y="480" width="83" height="150" as="geometry" />
        </mxCell>
        <mxCell id="kNIiqA8qOtIb_fAf9N2S-202" value="s1" style="text;strokeColor=none;fillColor=none;align=left;verticalAlign=middle;spacingLeft=4;spacingRight=4;overflow=hidden;points=[[0,0.5],[1,0.5]];portConstraint=eastwest;rotatable=0;whiteSpace=wrap;html=1;" vertex="1" parent="kNIiqA8qOtIb_fAf9N2S-201">
          <mxGeometry y="30" width="83" height="30" as="geometry" />
        </mxCell>
        <mxCell id="kNIiqA8qOtIb_fAf9N2S-203" value="s2" style="text;strokeColor=none;fillColor=none;align=left;verticalAlign=middle;spacingLeft=4;spacingRight=4;overflow=hidden;points=[[0,0.5],[1,0.5]];portConstraint=eastwest;rotatable=0;whiteSpace=wrap;html=1;" vertex="1" parent="kNIiqA8qOtIb_fAf9N2S-201">
          <mxGeometry y="60" width="83" height="30" as="geometry" />
        </mxCell>
        <mxCell id="kNIiqA8qOtIb_fAf9N2S-204" value="s3" style="text;strokeColor=none;fillColor=none;align=left;verticalAlign=middle;spacingLeft=4;spacingRight=4;overflow=hidden;points=[[0,0.5],[1,0.5]];portConstraint=eastwest;rotatable=0;whiteSpace=wrap;html=1;" vertex="1" parent="kNIiqA8qOtIb_fAf9N2S-201">
          <mxGeometry y="90" width="83" height="30" as="geometry" />
        </mxCell>
        <mxCell id="kNIiqA8qOtIb_fAf9N2S-207" value="s4" style="text;strokeColor=none;fillColor=none;align=left;verticalAlign=middle;spacingLeft=4;spacingRight=4;overflow=hidden;points=[[0,0.5],[1,0.5]];portConstraint=eastwest;rotatable=0;whiteSpace=wrap;html=1;" vertex="1" parent="kNIiqA8qOtIb_fAf9N2S-201">
          <mxGeometry y="120" width="83" height="30" as="geometry" />
        </mxCell>
        <mxCell id="kNIiqA8qOtIb_fAf9N2S-205" value="" style="endArrow=classic;html=1;rounded=0;entryX=0.5;entryY=0;entryDx=0;entryDy=0;" edge="1" parent="1" target="kNIiqA8qOtIb_fAf9N2S-201">
          <mxGeometry width="50" height="50" relative="1" as="geometry">
            <mxPoint x="-340" y="390" as="sourcePoint" />
            <mxPoint x="-350" y="490" as="targetPoint" />
          </mxGeometry>
        </mxCell>
        <mxCell id="kNIiqA8qOtIb_fAf9N2S-206" value="" style="endArrow=classic;html=1;rounded=0;" edge="1" parent="1" target="kNIiqA8qOtIb_fAf9N2S-201">
          <mxGeometry width="50" height="50" relative="1" as="geometry">
            <mxPoint x="-290" y="390" as="sourcePoint" />
            <mxPoint x="-333" y="490" as="targetPoint" />
          </mxGeometry>
        </mxCell>
        <mxCell id="kNIiqA8qOtIb_fAf9N2S-208" value="" style="endArrow=classic;html=1;rounded=0;exitX=1;exitY=1;exitDx=0;exitDy=0;" edge="1" parent="1" source="kNIiqA8qOtIb_fAf9N2S-201">
          <mxGeometry width="50" height="50" relative="1" as="geometry">
            <mxPoint x="-250" y="650" as="sourcePoint" />
            <mxPoint x="-190" y="620" as="targetPoint" />
          </mxGeometry>
        </mxCell>
        <mxCell id="kNIiqA8qOtIb_fAf9N2S-209" value="Hey im full&lt;br&gt;or getting full" style="text;html=1;align=center;verticalAlign=middle;resizable=0;points=[];autosize=1;strokeColor=none;fillColor=none;" vertex="1" parent="1">
          <mxGeometry x="-190" y="600" width="90" height="40" as="geometry" />
        </mxCell>
        <mxCell id="kNIiqA8qOtIb_fAf9N2S-214" value="1Hz handler for processing alive port data" style="text;html=1;align=center;verticalAlign=middle;resizable=0;points=[];autosize=1;strokeColor=none;fillColor=none;" vertex="1" parent="1">
          <mxGeometry x="458" y="325" width="250" height="30" as="geometry" />
        </mxCell>
        <mxCell id="kNIiqA8qOtIb_fAf9N2S-217" style="edgeStyle=orthogonalEdgeStyle;rounded=0;orthogonalLoop=1;jettySize=auto;html=1;" edge="1" parent="1" source="kNIiqA8qOtIb_fAf9N2S-215" target="kNIiqA8qOtIb_fAf9N2S-16">
          <mxGeometry relative="1" as="geometry" />
        </mxCell>
        <mxCell id="kNIiqA8qOtIb_fAf9N2S-215" value="Actor" style="shape=umlActor;verticalLabelPosition=bottom;verticalAlign=top;html=1;outlineConnect=0;" vertex="1" parent="1">
          <mxGeometry x="1010" y="600" width="30" height="60" as="geometry" />
        </mxCell>
        <mxCell id="kNIiqA8qOtIb_fAf9N2S-218" value="50k" style="text;html=1;align=center;verticalAlign=middle;resizable=0;points=[];autosize=1;strokeColor=none;fillColor=none;" vertex="1" parent="1">
          <mxGeometry x="-170" y="165" width="40" height="30" as="geometry" />
        </mxCell>
        <mxCell id="kNIiqA8qOtIb_fAf9N2S-220" value="LWIP" style="ellipse;shape=umlControl;whiteSpace=wrap;html=1;" vertex="1" parent="1">
          <mxGeometry x="540" y="670" width="70" height="80" as="geometry" />
        </mxCell>
        <mxCell id="kNIiqA8qOtIb_fAf9N2S-225" style="edgeStyle=orthogonalEdgeStyle;rounded=0;orthogonalLoop=1;jettySize=auto;html=1;entryX=1;entryY=0.5;entryDx=0;entryDy=0;" edge="1" parent="1" source="kNIiqA8qOtIb_fAf9N2S-224" target="kNIiqA8qOtIb_fAf9N2S-17">
          <mxGeometry relative="1" as="geometry">
            <mxPoint x="920" y="715" as="targetPoint" />
          </mxGeometry>
        </mxCell>
        <mxCell id="kNIiqA8qOtIb_fAf9N2S-224" value="Actor" style="shape=umlActor;verticalLabelPosition=bottom;verticalAlign=top;html=1;outlineConnect=0;" vertex="1" parent="1">
          <mxGeometry x="1070" y="660" width="30" height="60" as="geometry" />
        </mxCell>
        <mxCell id="kNIiqA8qOtIb_fAf9N2S-232" value="20us" style="text;html=1;align=center;verticalAlign=middle;resizable=0;points=[];autosize=1;strokeColor=none;fillColor=none;" vertex="1" parent="1">
          <mxGeometry x="-170" y="300" width="50" height="30" as="geometry" />
        </mxCell>
        <mxCell id="kNIiqA8qOtIb_fAf9N2S-233" value="Queue" style="rounded=0;whiteSpace=wrap;html=1;fillColor=#d5e8d4;strokeColor=#82b366;" vertex="1" parent="1">
          <mxGeometry x="297.5" y="333.75" width="56" height="62.5" as="geometry" />
        </mxCell>
        <mxCell id="kNIiqA8qOtIb_fAf9N2S-235" value="" style="curved=1;endArrow=classic;html=1;rounded=0;" edge="1" parent="1">
          <mxGeometry width="50" height="50" relative="1" as="geometry">
            <mxPoint x="887" y="530" as="sourcePoint" />
            <mxPoint x="1067" y="510" as="targetPoint" />
            <Array as="points">
              <mxPoint x="917" y="530" />
              <mxPoint x="937" y="480" />
              <mxPoint x="1017" y="540" />
            </Array>
          </mxGeometry>
        </mxCell>
        <mxCell id="kNIiqA8qOtIb_fAf9N2S-237" value="" style="curved=1;endArrow=classic;html=1;rounded=0;" edge="1" parent="1">
          <mxGeometry width="50" height="50" relative="1" as="geometry">
            <mxPoint x="1070" y="515" as="sourcePoint" />
            <mxPoint x="1250" y="520" as="targetPoint" />
            <Array as="points">
              <mxPoint x="1100" y="540" />
              <mxPoint x="1120" y="490" />
              <mxPoint x="1200" y="550" />
            </Array>
          </mxGeometry>
        </mxCell>
        <mxCell id="kNIiqA8qOtIb_fAf9N2S-238" value="" style="curved=1;endArrow=classic;html=1;rounded=0;" edge="1" parent="1">
          <mxGeometry width="50" height="50" relative="1" as="geometry">
            <mxPoint x="1250" y="520" as="sourcePoint" />
            <mxPoint x="1430" y="525" as="targetPoint" />
            <Array as="points">
              <mxPoint x="1280" y="545" />
              <mxPoint x="1300" y="495" />
              <mxPoint x="1380" y="555" />
            </Array>
          </mxGeometry>
        </mxCell>
        <mxCell id="kNIiqA8qOtIb_fAf9N2S-239" value="500K" style="text;html=1;align=center;verticalAlign=middle;resizable=0;points=[];autosize=1;strokeColor=none;fillColor=none;" vertex="1" parent="1">
          <mxGeometry x="950" y="425" width="50" height="30" as="geometry" />
        </mxCell>
        <mxCell id="kNIiqA8qOtIb_fAf9N2S-240" value="500K" style="text;html=1;align=center;verticalAlign=middle;resizable=0;points=[];autosize=1;strokeColor=none;fillColor=none;" vertex="1" parent="1">
          <mxGeometry x="1130" y="425" width="50" height="30" as="geometry" />
        </mxCell>
        <mxCell id="kNIiqA8qOtIb_fAf9N2S-241" value="500K" style="text;html=1;align=center;verticalAlign=middle;resizable=0;points=[];autosize=1;strokeColor=none;fillColor=none;" vertex="1" parent="1">
          <mxGeometry x="1310" y="425" width="50" height="30" as="geometry" />
        </mxCell>
        <mxCell id="kNIiqA8qOtIb_fAf9N2S-242" value="4KB" style="shape=document;whiteSpace=wrap;html=1;boundedLbl=1;" vertex="1" parent="1">
          <mxGeometry x="950" y="305" width="113" height="80" as="geometry" />
        </mxCell>
        <mxCell id="kNIiqA8qOtIb_fAf9N2S-243" value="configurable Packet sizes dependant on network -&amp;gt; with default" style="text;html=1;align=center;verticalAlign=middle;resizable=0;points=[];autosize=1;strokeColor=none;fillColor=none;" vertex="1" parent="1">
          <mxGeometry x="920" y="235" width="360" height="30" as="geometry" />
        </mxCell>
        <mxCell id="kNIiqA8qOtIb_fAf9N2S-244" value="Dispatch packet when queued data exceeds packet size." style="text;html=1;align=center;verticalAlign=middle;resizable=0;points=[];autosize=1;strokeColor=none;fillColor=none;" vertex="1" parent="1">
          <mxGeometry x="930" y="260" width="330" height="30" as="geometry" />
        </mxCell>
      </root>
    </mxGraphModel>
  </diagram>
</mxfile>
